G04 #@! TF.FileFunction,Legend,Top*
%FSLAX46Y46*%
G04 Gerber Fmt 4.6, Leading zero omitted, Abs format (unit mm)*
G04 Created by KiCad (PCBNEW 4.0.3-stable) date 09/02/16 18:28:01*
%MOMM*%
%LPD*%
G01*
G04 APERTURE LIST*
%ADD10C,0.100000*%
%ADD11C,0.762000*%
%ADD12C,0.254000*%
%ADD13C,0.190500*%
%ADD14C,0.300000*%
%ADD15C,0.200000*%
%ADD16C,0.158750*%
%ADD17C,0.150000*%
%ADD18C,0.130000*%
G04 APERTURE END LIST*
D10*
D11*
X176142953Y-63832619D02*
X177654858Y-63832619D01*
X177654858Y-62623095D01*
X177050096Y-62320714D01*
X176445334Y-61715952D01*
X176142953Y-60808810D01*
X176142953Y-59296905D01*
X176445334Y-58389762D01*
X177050096Y-57785000D01*
X177957239Y-57482619D01*
X179166762Y-57482619D01*
X180073905Y-57785000D01*
X180678667Y-58389762D01*
X180981048Y-59296905D01*
X180981048Y-60808810D01*
X180678667Y-61715952D01*
X180073905Y-62320714D01*
X179469143Y-62623095D01*
X179469143Y-63832619D01*
X180981048Y-63832619D01*
X176142953Y-79580619D02*
X177654858Y-79580619D01*
X177654858Y-78371095D01*
X177050096Y-78068714D01*
X176445334Y-77463952D01*
X176142953Y-76556810D01*
X176142953Y-75044905D01*
X176445334Y-74137762D01*
X177050096Y-73533000D01*
X177957239Y-73230619D01*
X179166762Y-73230619D01*
X180073905Y-73533000D01*
X180678667Y-74137762D01*
X180981048Y-75044905D01*
X180981048Y-76556810D01*
X180678667Y-77463952D01*
X180073905Y-78068714D01*
X179469143Y-78371095D01*
X179469143Y-79580619D01*
X180981048Y-79580619D01*
X176142953Y-71706619D02*
X177654858Y-71706619D01*
X177654858Y-70497095D01*
X177050096Y-70194714D01*
X176445334Y-69589952D01*
X176142953Y-68682810D01*
X176142953Y-67170905D01*
X176445334Y-66263762D01*
X177050096Y-65659000D01*
X177957239Y-65356619D01*
X179166762Y-65356619D01*
X180073905Y-65659000D01*
X180678667Y-66263762D01*
X180981048Y-67170905D01*
X180981048Y-68682810D01*
X180678667Y-69589952D01*
X180073905Y-70194714D01*
X179469143Y-70497095D01*
X179469143Y-71706619D01*
X180981048Y-71706619D01*
D12*
X159566430Y-84055857D02*
X160074430Y-84055857D01*
X160292144Y-86051571D02*
X159566430Y-86051571D01*
X159566430Y-82241571D01*
X160292144Y-82241571D01*
X160727573Y-82241571D02*
X161235573Y-86051571D01*
X161743573Y-82241571D01*
X163412716Y-86051571D02*
X163412716Y-82241571D01*
X163775573Y-82241571D01*
X163993288Y-82423000D01*
X164138430Y-82785857D01*
X164211002Y-83148714D01*
X164283573Y-83874429D01*
X164283573Y-84418714D01*
X164211002Y-85144429D01*
X164138430Y-85507286D01*
X163993288Y-85870143D01*
X163775573Y-86051571D01*
X163412716Y-86051571D01*
X165589859Y-86051571D02*
X165589859Y-84055857D01*
X165517288Y-83693000D01*
X165372145Y-83511571D01*
X165081859Y-83511571D01*
X164936716Y-83693000D01*
X165589859Y-85870143D02*
X165444716Y-86051571D01*
X165081859Y-86051571D01*
X164936716Y-85870143D01*
X164864145Y-85507286D01*
X164864145Y-85144429D01*
X164936716Y-84781571D01*
X165081859Y-84600143D01*
X165444716Y-84600143D01*
X165589859Y-84418714D01*
X166097859Y-83511571D02*
X166678430Y-83511571D01*
X166315573Y-82241571D02*
X166315573Y-85507286D01*
X166388145Y-85870143D01*
X166533287Y-86051571D01*
X166678430Y-86051571D01*
X167839573Y-86051571D02*
X167839573Y-84055857D01*
X167767002Y-83693000D01*
X167621859Y-83511571D01*
X167331573Y-83511571D01*
X167186430Y-83693000D01*
X167839573Y-85870143D02*
X167694430Y-86051571D01*
X167331573Y-86051571D01*
X167186430Y-85870143D01*
X167113859Y-85507286D01*
X167113859Y-85144429D01*
X167186430Y-84781571D01*
X167331573Y-84600143D01*
X167694430Y-84600143D01*
X167839573Y-84418714D01*
X169653859Y-84963000D02*
X170379573Y-84963000D01*
X169508716Y-86051571D02*
X170016716Y-82241571D01*
X170524716Y-86051571D01*
X171685859Y-85870143D02*
X171540716Y-86051571D01*
X171250430Y-86051571D01*
X171105288Y-85870143D01*
X171032716Y-85688714D01*
X170960145Y-85325857D01*
X170960145Y-84237286D01*
X171032716Y-83874429D01*
X171105288Y-83693000D01*
X171250430Y-83511571D01*
X171540716Y-83511571D01*
X171685859Y-83693000D01*
X172992145Y-83511571D02*
X172992145Y-87321571D01*
X172992145Y-85870143D02*
X172847002Y-86051571D01*
X172556716Y-86051571D01*
X172411574Y-85870143D01*
X172339002Y-85688714D01*
X172266431Y-85325857D01*
X172266431Y-84237286D01*
X172339002Y-83874429D01*
X172411574Y-83693000D01*
X172556716Y-83511571D01*
X172847002Y-83511571D01*
X172992145Y-83693000D01*
X174371002Y-83511571D02*
X174371002Y-86051571D01*
X173717859Y-83511571D02*
X173717859Y-85507286D01*
X173790431Y-85870143D01*
X173935573Y-86051571D01*
X174153288Y-86051571D01*
X174298431Y-85870143D01*
X174371002Y-85688714D01*
X175096716Y-86051571D02*
X175096716Y-83511571D01*
X175096716Y-82241571D02*
X175024145Y-82423000D01*
X175096716Y-82604429D01*
X175169288Y-82423000D01*
X175096716Y-82241571D01*
X175096716Y-82604429D01*
X175749859Y-85870143D02*
X175895002Y-86051571D01*
X176185287Y-86051571D01*
X176330430Y-85870143D01*
X176403002Y-85507286D01*
X176403002Y-85325857D01*
X176330430Y-84963000D01*
X176185287Y-84781571D01*
X175967573Y-84781571D01*
X175822430Y-84600143D01*
X175749859Y-84237286D01*
X175749859Y-84055857D01*
X175822430Y-83693000D01*
X175967573Y-83511571D01*
X176185287Y-83511571D01*
X176330430Y-83693000D01*
X177056144Y-86051571D02*
X177056144Y-83511571D01*
X177056144Y-82241571D02*
X176983573Y-82423000D01*
X177056144Y-82604429D01*
X177128716Y-82423000D01*
X177056144Y-82241571D01*
X177056144Y-82604429D01*
X177564144Y-83511571D02*
X178144715Y-83511571D01*
X177781858Y-82241571D02*
X177781858Y-85507286D01*
X177854430Y-85870143D01*
X177999572Y-86051571D01*
X178144715Y-86051571D01*
X178652715Y-86051571D02*
X178652715Y-83511571D01*
X178652715Y-82241571D02*
X178580144Y-82423000D01*
X178652715Y-82604429D01*
X178725287Y-82423000D01*
X178652715Y-82241571D01*
X178652715Y-82604429D01*
X179596143Y-86051571D02*
X179451001Y-85870143D01*
X179378429Y-85688714D01*
X179305858Y-85325857D01*
X179305858Y-84237286D01*
X179378429Y-83874429D01*
X179451001Y-83693000D01*
X179596143Y-83511571D01*
X179813858Y-83511571D01*
X179959001Y-83693000D01*
X180031572Y-83874429D01*
X180104143Y-84237286D01*
X180104143Y-85325857D01*
X180031572Y-85688714D01*
X179959001Y-85870143D01*
X179813858Y-86051571D01*
X179596143Y-86051571D01*
X180757286Y-83511571D02*
X180757286Y-86051571D01*
X180757286Y-83874429D02*
X180829858Y-83693000D01*
X180975000Y-83511571D01*
X181192715Y-83511571D01*
X181337858Y-83693000D01*
X181410429Y-84055857D01*
X181410429Y-86051571D01*
X183297286Y-82241571D02*
X183297286Y-85325857D01*
X183369858Y-85688714D01*
X183442429Y-85870143D01*
X183587572Y-86051571D01*
X183877858Y-86051571D01*
X184023000Y-85870143D01*
X184095572Y-85688714D01*
X184168143Y-85325857D01*
X184168143Y-82241571D01*
X184893857Y-83511571D02*
X184893857Y-86051571D01*
X184893857Y-83874429D02*
X184966429Y-83693000D01*
X185111571Y-83511571D01*
X185329286Y-83511571D01*
X185474429Y-83693000D01*
X185547000Y-84055857D01*
X185547000Y-86051571D01*
X186272714Y-86051571D02*
X186272714Y-83511571D01*
X186272714Y-82241571D02*
X186200143Y-82423000D01*
X186272714Y-82604429D01*
X186345286Y-82423000D01*
X186272714Y-82241571D01*
X186272714Y-82604429D01*
X186780714Y-83511571D02*
X187361285Y-83511571D01*
X186998428Y-82241571D02*
X186998428Y-85507286D01*
X187071000Y-85870143D01*
X187216142Y-86051571D01*
X187361285Y-86051571D01*
X140849049Y-41336571D02*
X140849049Y-39836571D01*
X141090954Y-39836571D01*
X141236096Y-39908000D01*
X141332858Y-40050857D01*
X141381239Y-40193714D01*
X141429620Y-40479429D01*
X141429620Y-40693714D01*
X141381239Y-40979429D01*
X141332858Y-41122286D01*
X141236096Y-41265143D01*
X141090954Y-41336571D01*
X140849049Y-41336571D01*
X142252096Y-41265143D02*
X142155334Y-41336571D01*
X141961811Y-41336571D01*
X141865049Y-41265143D01*
X141816668Y-41122286D01*
X141816668Y-40550857D01*
X141865049Y-40408000D01*
X141961811Y-40336571D01*
X142155334Y-40336571D01*
X142252096Y-40408000D01*
X142300477Y-40550857D01*
X142300477Y-40693714D01*
X141816668Y-40836571D01*
X142687525Y-41265143D02*
X142784287Y-41336571D01*
X142977811Y-41336571D01*
X143074572Y-41265143D01*
X143122953Y-41122286D01*
X143122953Y-41050857D01*
X143074572Y-40908000D01*
X142977811Y-40836571D01*
X142832668Y-40836571D01*
X142735906Y-40765143D01*
X142687525Y-40622286D01*
X142687525Y-40550857D01*
X142735906Y-40408000D01*
X142832668Y-40336571D01*
X142977811Y-40336571D01*
X143074572Y-40408000D01*
X143558382Y-41336571D02*
X143558382Y-40336571D01*
X143558382Y-39836571D02*
X143510001Y-39908000D01*
X143558382Y-39979429D01*
X143606763Y-39908000D01*
X143558382Y-39836571D01*
X143558382Y-39979429D01*
X144477620Y-40336571D02*
X144477620Y-41550857D01*
X144429239Y-41693714D01*
X144380858Y-41765143D01*
X144284097Y-41836571D01*
X144138954Y-41836571D01*
X144042192Y-41765143D01*
X144477620Y-41265143D02*
X144380858Y-41336571D01*
X144187335Y-41336571D01*
X144090573Y-41265143D01*
X144042192Y-41193714D01*
X143993811Y-41050857D01*
X143993811Y-40622286D01*
X144042192Y-40479429D01*
X144090573Y-40408000D01*
X144187335Y-40336571D01*
X144380858Y-40336571D01*
X144477620Y-40408000D01*
X144961430Y-40336571D02*
X144961430Y-41336571D01*
X144961430Y-40479429D02*
X145009811Y-40408000D01*
X145106573Y-40336571D01*
X145251715Y-40336571D01*
X145348477Y-40408000D01*
X145396858Y-40550857D01*
X145396858Y-41336571D01*
X146654763Y-41336571D02*
X146654763Y-39836571D01*
X146654763Y-40408000D02*
X146751525Y-40336571D01*
X146945048Y-40336571D01*
X147041810Y-40408000D01*
X147090191Y-40479429D01*
X147138572Y-40622286D01*
X147138572Y-41050857D01*
X147090191Y-41193714D01*
X147041810Y-41265143D01*
X146945048Y-41336571D01*
X146751525Y-41336571D01*
X146654763Y-41265143D01*
X147477239Y-40336571D02*
X147719144Y-41336571D01*
X147961048Y-40336571D02*
X147719144Y-41336571D01*
X147622382Y-41693714D01*
X147574001Y-41765143D01*
X147477239Y-41836571D01*
X149412476Y-39836571D02*
X149412476Y-40908000D01*
X149364096Y-41122286D01*
X149267334Y-41265143D01*
X149122191Y-41336571D01*
X149025429Y-41336571D01*
X150041429Y-41336571D02*
X149944667Y-41265143D01*
X149896286Y-41193714D01*
X149847905Y-41050857D01*
X149847905Y-40622286D01*
X149896286Y-40479429D01*
X149944667Y-40408000D01*
X150041429Y-40336571D01*
X150186571Y-40336571D01*
X150283333Y-40408000D01*
X150331714Y-40479429D01*
X150380095Y-40622286D01*
X150380095Y-41050857D01*
X150331714Y-41193714D01*
X150283333Y-41265143D01*
X150186571Y-41336571D01*
X150041429Y-41336571D01*
X150815524Y-41336571D02*
X150815524Y-39836571D01*
X151250952Y-41336571D02*
X151250952Y-40550857D01*
X151202571Y-40408000D01*
X151105809Y-40336571D01*
X150960667Y-40336571D01*
X150863905Y-40408000D01*
X150815524Y-40479429D01*
X151734762Y-40336571D02*
X151734762Y-41336571D01*
X151734762Y-40479429D02*
X151783143Y-40408000D01*
X151879905Y-40336571D01*
X152025047Y-40336571D01*
X152121809Y-40408000D01*
X152170190Y-40550857D01*
X152170190Y-41336571D01*
X153766761Y-40550857D02*
X153428095Y-40550857D01*
X153428095Y-41336571D02*
X153428095Y-39836571D01*
X153911904Y-39836571D01*
X154298952Y-41336571D02*
X154298952Y-40336571D01*
X154298952Y-40622286D02*
X154347333Y-40479429D01*
X154395714Y-40408000D01*
X154492476Y-40336571D01*
X154589237Y-40336571D01*
X154927904Y-41336571D02*
X154927904Y-40336571D01*
X154927904Y-39836571D02*
X154879523Y-39908000D01*
X154927904Y-39979429D01*
X154976285Y-39908000D01*
X154927904Y-39836571D01*
X154927904Y-39979429D01*
X155266571Y-40336571D02*
X155653619Y-40336571D01*
X155411714Y-39836571D02*
X155411714Y-41122286D01*
X155460095Y-41265143D01*
X155556857Y-41336571D01*
X155653619Y-41336571D01*
X155895523Y-40336571D02*
X156427713Y-40336571D01*
X155895523Y-41336571D01*
X156427713Y-41336571D01*
X144695333Y-42840571D02*
X144695333Y-44054857D01*
X144646952Y-44197714D01*
X144598571Y-44269143D01*
X144501810Y-44340571D01*
X144356667Y-44340571D01*
X144259905Y-44269143D01*
X144695333Y-43769143D02*
X144598571Y-43840571D01*
X144405048Y-43840571D01*
X144308286Y-43769143D01*
X144259905Y-43697714D01*
X144211524Y-43554857D01*
X144211524Y-43126286D01*
X144259905Y-42983429D01*
X144308286Y-42912000D01*
X144405048Y-42840571D01*
X144598571Y-42840571D01*
X144695333Y-42912000D01*
X145179143Y-43840571D02*
X145179143Y-42840571D01*
X145179143Y-42340571D02*
X145130762Y-42412000D01*
X145179143Y-42483429D01*
X145227524Y-42412000D01*
X145179143Y-42340571D01*
X145179143Y-42483429D01*
X145517810Y-42840571D02*
X145904858Y-42840571D01*
X145662953Y-42340571D02*
X145662953Y-43626286D01*
X145711334Y-43769143D01*
X145808096Y-43840571D01*
X145904858Y-43840571D01*
X146243524Y-43840571D02*
X146243524Y-42340571D01*
X146678952Y-43840571D02*
X146678952Y-43054857D01*
X146630571Y-42912000D01*
X146533809Y-42840571D01*
X146388667Y-42840571D01*
X146291905Y-42912000D01*
X146243524Y-42983429D01*
X147598190Y-42840571D02*
X147598190Y-43840571D01*
X147162762Y-42840571D02*
X147162762Y-43626286D01*
X147211143Y-43769143D01*
X147307905Y-43840571D01*
X147453047Y-43840571D01*
X147549809Y-43769143D01*
X147598190Y-43697714D01*
X148082000Y-43840571D02*
X148082000Y-42340571D01*
X148082000Y-42912000D02*
X148178762Y-42840571D01*
X148372285Y-42840571D01*
X148469047Y-42912000D01*
X148517428Y-42983429D01*
X148565809Y-43126286D01*
X148565809Y-43554857D01*
X148517428Y-43697714D01*
X148469047Y-43769143D01*
X148372285Y-43840571D01*
X148178762Y-43840571D01*
X148082000Y-43769143D01*
X149001238Y-43697714D02*
X149049619Y-43769143D01*
X149001238Y-43840571D01*
X148952857Y-43769143D01*
X149001238Y-43697714D01*
X149001238Y-43840571D01*
X149001238Y-42912000D02*
X149049619Y-42983429D01*
X149001238Y-43054857D01*
X148952857Y-42983429D01*
X149001238Y-42912000D01*
X149001238Y-43054857D01*
X150259143Y-42840571D02*
X150259143Y-44126286D01*
X150210762Y-44269143D01*
X150114000Y-44340571D01*
X150065619Y-44340571D01*
X150259143Y-42340571D02*
X150210762Y-42412000D01*
X150259143Y-42483429D01*
X150307524Y-42412000D01*
X150259143Y-42340571D01*
X150259143Y-42483429D01*
X150597810Y-42840571D02*
X150984858Y-42840571D01*
X150742953Y-43840571D02*
X150742953Y-42554857D01*
X150791334Y-42412000D01*
X150888096Y-42340571D01*
X150984858Y-42340571D01*
X151323524Y-43840571D02*
X151323524Y-42840571D01*
X151323524Y-43126286D02*
X151371905Y-42983429D01*
X151420286Y-42912000D01*
X151517048Y-42840571D01*
X151613809Y-42840571D01*
X151952476Y-43840571D02*
X151952476Y-42840571D01*
X151952476Y-42340571D02*
X151904095Y-42412000D01*
X151952476Y-42483429D01*
X152000857Y-42412000D01*
X151952476Y-42340571D01*
X151952476Y-42483429D01*
X152387905Y-42483429D02*
X152436286Y-42412000D01*
X152533048Y-42340571D01*
X152774952Y-42340571D01*
X152871714Y-42412000D01*
X152920095Y-42483429D01*
X152968476Y-42626286D01*
X152968476Y-42769143D01*
X152920095Y-42983429D01*
X152339524Y-43840571D01*
X152968476Y-43840571D01*
D13*
X105869619Y-60264524D02*
X105530953Y-59659762D01*
X105289048Y-60264524D02*
X105289048Y-58994524D01*
X105676095Y-58994524D01*
X105772857Y-59055000D01*
X105821238Y-59115476D01*
X105869619Y-59236429D01*
X105869619Y-59417857D01*
X105821238Y-59538810D01*
X105772857Y-59599286D01*
X105676095Y-59659762D01*
X105289048Y-59659762D01*
X106256667Y-60204048D02*
X106401810Y-60264524D01*
X106643714Y-60264524D01*
X106740476Y-60204048D01*
X106788857Y-60143571D01*
X106837238Y-60022619D01*
X106837238Y-59901667D01*
X106788857Y-59780714D01*
X106740476Y-59720238D01*
X106643714Y-59659762D01*
X106450191Y-59599286D01*
X106353429Y-59538810D01*
X106305048Y-59478333D01*
X106256667Y-59357381D01*
X106256667Y-59236429D01*
X106305048Y-59115476D01*
X106353429Y-59055000D01*
X106450191Y-58994524D01*
X106692095Y-58994524D01*
X106837238Y-59055000D01*
X107127524Y-58994524D02*
X107708095Y-58994524D01*
X107417810Y-60264524D02*
X107417810Y-58994524D01*
X105047143Y-58775600D02*
X107804857Y-58775600D01*
D14*
X188722143Y-57010000D02*
X188579286Y-56938571D01*
X188365000Y-56938571D01*
X188150715Y-57010000D01*
X188007857Y-57152857D01*
X187936429Y-57295714D01*
X187865000Y-57581429D01*
X187865000Y-57795714D01*
X187936429Y-58081429D01*
X188007857Y-58224286D01*
X188150715Y-58367143D01*
X188365000Y-58438571D01*
X188507857Y-58438571D01*
X188722143Y-58367143D01*
X188793572Y-58295714D01*
X188793572Y-57795714D01*
X188507857Y-57795714D01*
X189436429Y-58438571D02*
X189436429Y-56938571D01*
X190293572Y-58438571D01*
X190293572Y-56938571D01*
X191007858Y-58438571D02*
X191007858Y-56938571D01*
X191365001Y-56938571D01*
X191579286Y-57010000D01*
X191722144Y-57152857D01*
X191793572Y-57295714D01*
X191865001Y-57581429D01*
X191865001Y-57795714D01*
X191793572Y-58081429D01*
X191722144Y-58224286D01*
X191579286Y-58367143D01*
X191365001Y-58438571D01*
X191007858Y-58438571D01*
X186865000Y-60988571D02*
X186865000Y-59488571D01*
X186865000Y-60202857D02*
X187722143Y-60202857D01*
X187722143Y-60988571D02*
X187722143Y-59488571D01*
X188365000Y-60560000D02*
X189079286Y-60560000D01*
X188222143Y-60988571D02*
X188722143Y-59488571D01*
X189222143Y-60988571D01*
X190436429Y-60988571D02*
X189722143Y-60988571D01*
X189722143Y-59488571D01*
X191650715Y-60988571D02*
X190936429Y-60988571D01*
X190936429Y-59488571D01*
X192007858Y-59488571D02*
X192936429Y-59488571D01*
X192436429Y-60060000D01*
X192650715Y-60060000D01*
X192793572Y-60131429D01*
X192865001Y-60202857D01*
X192936429Y-60345714D01*
X192936429Y-60702857D01*
X192865001Y-60845714D01*
X192793572Y-60917143D01*
X192650715Y-60988571D01*
X192222143Y-60988571D01*
X192079286Y-60917143D01*
X192007858Y-60845714D01*
X186865000Y-63538571D02*
X186865000Y-62038571D01*
X186865000Y-62752857D02*
X187722143Y-62752857D01*
X187722143Y-63538571D02*
X187722143Y-62038571D01*
X188365000Y-63110000D02*
X189079286Y-63110000D01*
X188222143Y-63538571D02*
X188722143Y-62038571D01*
X189222143Y-63538571D01*
X190436429Y-63538571D02*
X189722143Y-63538571D01*
X189722143Y-62038571D01*
X191650715Y-63538571D02*
X190936429Y-63538571D01*
X190936429Y-62038571D01*
X192079286Y-62181429D02*
X192150715Y-62110000D01*
X192293572Y-62038571D01*
X192650715Y-62038571D01*
X192793572Y-62110000D01*
X192865001Y-62181429D01*
X192936429Y-62324286D01*
X192936429Y-62467143D01*
X192865001Y-62681429D01*
X192007858Y-63538571D01*
X192936429Y-63538571D01*
X186865000Y-66088571D02*
X186865000Y-64588571D01*
X186865000Y-65302857D02*
X187722143Y-65302857D01*
X187722143Y-66088571D02*
X187722143Y-64588571D01*
X188365000Y-65660000D02*
X189079286Y-65660000D01*
X188222143Y-66088571D02*
X188722143Y-64588571D01*
X189222143Y-66088571D01*
X190436429Y-66088571D02*
X189722143Y-66088571D01*
X189722143Y-64588571D01*
X191650715Y-66088571D02*
X190936429Y-66088571D01*
X190936429Y-64588571D01*
X192936429Y-66088571D02*
X192079286Y-66088571D01*
X192507858Y-66088571D02*
X192507858Y-64588571D01*
X192365001Y-64802857D01*
X192222143Y-64945714D01*
X192079286Y-65017143D01*
X187936429Y-68067143D02*
X189079286Y-68067143D01*
X188507857Y-68638571D02*
X188507857Y-67495714D01*
X190507858Y-67138571D02*
X189793572Y-67138571D01*
X189722143Y-67852857D01*
X189793572Y-67781429D01*
X189936429Y-67710000D01*
X190293572Y-67710000D01*
X190436429Y-67781429D01*
X190507858Y-67852857D01*
X190579286Y-67995714D01*
X190579286Y-68352857D01*
X190507858Y-68495714D01*
X190436429Y-68567143D01*
X190293572Y-68638571D01*
X189936429Y-68638571D01*
X189793572Y-68567143D01*
X189722143Y-68495714D01*
X191007857Y-67138571D02*
X191507857Y-68638571D01*
X192007857Y-67138571D01*
X188722143Y-69760000D02*
X188579286Y-69688571D01*
X188365000Y-69688571D01*
X188150715Y-69760000D01*
X188007857Y-69902857D01*
X187936429Y-70045714D01*
X187865000Y-70331429D01*
X187865000Y-70545714D01*
X187936429Y-70831429D01*
X188007857Y-70974286D01*
X188150715Y-71117143D01*
X188365000Y-71188571D01*
X188507857Y-71188571D01*
X188722143Y-71117143D01*
X188793572Y-71045714D01*
X188793572Y-70545714D01*
X188507857Y-70545714D01*
X189436429Y-71188571D02*
X189436429Y-69688571D01*
X190293572Y-71188571D01*
X190293572Y-69688571D01*
X191007858Y-71188571D02*
X191007858Y-69688571D01*
X191365001Y-69688571D01*
X191579286Y-69760000D01*
X191722144Y-69902857D01*
X191793572Y-70045714D01*
X191865001Y-70331429D01*
X191865001Y-70545714D01*
X191793572Y-70831429D01*
X191722144Y-70974286D01*
X191579286Y-71117143D01*
X191365001Y-71188571D01*
X191007858Y-71188571D01*
X121805000Y-43695714D02*
X121733571Y-43838571D01*
X121733571Y-44052857D01*
X121805000Y-44267142D01*
X121947857Y-44410000D01*
X122090714Y-44481428D01*
X122376429Y-44552857D01*
X122590714Y-44552857D01*
X122876429Y-44481428D01*
X123019286Y-44410000D01*
X123162143Y-44267142D01*
X123233571Y-44052857D01*
X123233571Y-43910000D01*
X123162143Y-43695714D01*
X123090714Y-43624285D01*
X122590714Y-43624285D01*
X122590714Y-43910000D01*
X123233571Y-42981428D02*
X121733571Y-42981428D01*
X123233571Y-42124285D01*
X121733571Y-42124285D01*
X123233571Y-41409999D02*
X121733571Y-41409999D01*
X121733571Y-41052856D01*
X121805000Y-40838571D01*
X121947857Y-40695713D01*
X122090714Y-40624285D01*
X122376429Y-40552856D01*
X122590714Y-40552856D01*
X122876429Y-40624285D01*
X123019286Y-40695713D01*
X123162143Y-40838571D01*
X123233571Y-41052856D01*
X123233571Y-41409999D01*
X122805000Y-39981428D02*
X122805000Y-39267142D01*
X123233571Y-40124285D02*
X121733571Y-39624285D01*
X123233571Y-39124285D01*
X115613571Y-43124285D02*
X115613571Y-43838571D01*
X114113571Y-43838571D01*
X115470714Y-41767142D02*
X115542143Y-41838571D01*
X115613571Y-42052857D01*
X115613571Y-42195714D01*
X115542143Y-42409999D01*
X115399286Y-42552857D01*
X115256429Y-42624285D01*
X114970714Y-42695714D01*
X114756429Y-42695714D01*
X114470714Y-42624285D01*
X114327857Y-42552857D01*
X114185000Y-42409999D01*
X114113571Y-42195714D01*
X114113571Y-42052857D01*
X114185000Y-41838571D01*
X114256429Y-41767142D01*
X115042143Y-41124285D02*
X115042143Y-39981428D01*
X118153571Y-43124285D02*
X118153571Y-43838571D01*
X116653571Y-43838571D01*
X118010714Y-41767142D02*
X118082143Y-41838571D01*
X118153571Y-42052857D01*
X118153571Y-42195714D01*
X118082143Y-42409999D01*
X117939286Y-42552857D01*
X117796429Y-42624285D01*
X117510714Y-42695714D01*
X117296429Y-42695714D01*
X117010714Y-42624285D01*
X116867857Y-42552857D01*
X116725000Y-42409999D01*
X116653571Y-42195714D01*
X116653571Y-42052857D01*
X116725000Y-41838571D01*
X116796429Y-41767142D01*
X117582143Y-41124285D02*
X117582143Y-39981428D01*
X118153571Y-40552857D02*
X117010714Y-40552857D01*
X120122143Y-44552856D02*
X120122143Y-43409999D01*
X120693571Y-43981428D02*
X119550714Y-43981428D01*
X120693571Y-41909999D02*
X120693571Y-42767142D01*
X120693571Y-42338570D02*
X119193571Y-42338570D01*
X119407857Y-42481427D01*
X119550714Y-42624285D01*
X119622143Y-42767142D01*
X119193571Y-40981428D02*
X119193571Y-40838571D01*
X119265000Y-40695714D01*
X119336429Y-40624285D01*
X119479286Y-40552856D01*
X119765000Y-40481428D01*
X120122143Y-40481428D01*
X120407857Y-40552856D01*
X120550714Y-40624285D01*
X120622143Y-40695714D01*
X120693571Y-40838571D01*
X120693571Y-40981428D01*
X120622143Y-41124285D01*
X120550714Y-41195714D01*
X120407857Y-41267142D01*
X120122143Y-41338571D01*
X119765000Y-41338571D01*
X119479286Y-41267142D01*
X119336429Y-41195714D01*
X119265000Y-41124285D01*
X119193571Y-40981428D01*
X119193571Y-40052857D02*
X120693571Y-39552857D01*
X119193571Y-39052857D01*
X111645000Y-43695714D02*
X111573571Y-43838571D01*
X111573571Y-44052857D01*
X111645000Y-44267142D01*
X111787857Y-44410000D01*
X111930714Y-44481428D01*
X112216429Y-44552857D01*
X112430714Y-44552857D01*
X112716429Y-44481428D01*
X112859286Y-44410000D01*
X113002143Y-44267142D01*
X113073571Y-44052857D01*
X113073571Y-43910000D01*
X113002143Y-43695714D01*
X112930714Y-43624285D01*
X112430714Y-43624285D01*
X112430714Y-43910000D01*
X113073571Y-42981428D02*
X111573571Y-42981428D01*
X113073571Y-42124285D01*
X111573571Y-42124285D01*
X113073571Y-41409999D02*
X111573571Y-41409999D01*
X111573571Y-41052856D01*
X111645000Y-40838571D01*
X111787857Y-40695713D01*
X111930714Y-40624285D01*
X112216429Y-40552856D01*
X112430714Y-40552856D01*
X112716429Y-40624285D01*
X112859286Y-40695713D01*
X113002143Y-40838571D01*
X113073571Y-41052856D01*
X113073571Y-41409999D01*
X112645000Y-39981428D02*
X112645000Y-39267142D01*
X113073571Y-40124285D02*
X111573571Y-39624285D01*
X113073571Y-39124285D01*
D11*
X159766000Y-41910000D02*
X162306000Y-41910000D01*
X169672000Y-41910000D02*
X172212000Y-41910000D01*
X170942000Y-40640000D02*
X170942000Y-43180000D01*
D14*
X127516428Y-76450000D02*
X128230714Y-76450000D01*
X127373571Y-76878571D02*
X127873571Y-75378571D01*
X128373571Y-76878571D01*
X128873571Y-76878571D02*
X128873571Y-75378571D01*
X129730714Y-76878571D01*
X129730714Y-75378571D01*
X130373571Y-76450000D02*
X131087857Y-76450000D01*
X130230714Y-76878571D02*
X130730714Y-75378571D01*
X131230714Y-76878571D01*
X132445000Y-76878571D02*
X131730714Y-76878571D01*
X131730714Y-75378571D01*
X133230714Y-75378571D02*
X133516428Y-75378571D01*
X133659286Y-75450000D01*
X133802143Y-75592857D01*
X133873571Y-75878571D01*
X133873571Y-76378571D01*
X133802143Y-76664286D01*
X133659286Y-76807143D01*
X133516428Y-76878571D01*
X133230714Y-76878571D01*
X133087857Y-76807143D01*
X132945000Y-76664286D01*
X132873571Y-76378571D01*
X132873571Y-75878571D01*
X132945000Y-75592857D01*
X133087857Y-75450000D01*
X133230714Y-75378571D01*
X135302143Y-75450000D02*
X135159286Y-75378571D01*
X134945000Y-75378571D01*
X134730715Y-75450000D01*
X134587857Y-75592857D01*
X134516429Y-75735714D01*
X134445000Y-76021429D01*
X134445000Y-76235714D01*
X134516429Y-76521429D01*
X134587857Y-76664286D01*
X134730715Y-76807143D01*
X134945000Y-76878571D01*
X135087857Y-76878571D01*
X135302143Y-76807143D01*
X135373572Y-76735714D01*
X135373572Y-76235714D01*
X135087857Y-76235714D01*
X139831429Y-76878571D02*
X139831429Y-75378571D01*
X140188572Y-75378571D01*
X140402857Y-75450000D01*
X140545715Y-75592857D01*
X140617143Y-75735714D01*
X140688572Y-76021429D01*
X140688572Y-76235714D01*
X140617143Y-76521429D01*
X140545715Y-76664286D01*
X140402857Y-76807143D01*
X140188572Y-76878571D01*
X139831429Y-76878571D01*
X141331429Y-76878571D02*
X141331429Y-75378571D01*
X142831429Y-75450000D02*
X142688572Y-75378571D01*
X142474286Y-75378571D01*
X142260001Y-75450000D01*
X142117143Y-75592857D01*
X142045715Y-75735714D01*
X141974286Y-76021429D01*
X141974286Y-76235714D01*
X142045715Y-76521429D01*
X142117143Y-76664286D01*
X142260001Y-76807143D01*
X142474286Y-76878571D01*
X142617143Y-76878571D01*
X142831429Y-76807143D01*
X142902858Y-76735714D01*
X142902858Y-76235714D01*
X142617143Y-76235714D01*
X143545715Y-76878571D02*
X143545715Y-75378571D01*
X144045715Y-75378571D02*
X144902858Y-75378571D01*
X144474287Y-76878571D02*
X144474287Y-75378571D01*
X145331429Y-76450000D02*
X146045715Y-76450000D01*
X145188572Y-76878571D02*
X145688572Y-75378571D01*
X146188572Y-76878571D01*
X147402858Y-76878571D02*
X146688572Y-76878571D01*
X146688572Y-75378571D01*
D15*
X137160000Y-78105000D02*
X137160000Y-80645000D01*
X125730000Y-78105000D02*
X137160000Y-78105000D01*
X125730000Y-80645000D02*
X125730000Y-78105000D01*
X148590000Y-78105000D02*
X148590000Y-80645000D01*
X137795000Y-78105000D02*
X148590000Y-78105000D01*
X137795000Y-80645000D02*
X137795000Y-78105000D01*
D16*
X195368333Y-49723524D02*
X194945000Y-49118762D01*
X194642619Y-49723524D02*
X194642619Y-48453524D01*
X195126428Y-48453524D01*
X195247381Y-48514000D01*
X195307857Y-48574476D01*
X195368333Y-48695429D01*
X195368333Y-48876857D01*
X195307857Y-48997810D01*
X195247381Y-49058286D01*
X195126428Y-49118762D01*
X194642619Y-49118762D01*
X195791667Y-48453524D02*
X196638333Y-49723524D01*
X196638333Y-48453524D02*
X195791667Y-49723524D01*
X175943381Y-48453524D02*
X176669096Y-48453524D01*
X176306239Y-49723524D02*
X176306239Y-48453524D01*
X176971477Y-48453524D02*
X177818143Y-49723524D01*
X177818143Y-48453524D02*
X176971477Y-49723524D01*
D12*
X190100857Y-79350809D02*
X190173429Y-79205666D01*
X190173429Y-78963762D01*
X190100857Y-78867000D01*
X190028286Y-78818619D01*
X189883143Y-78770238D01*
X189738000Y-78770238D01*
X189592857Y-78818619D01*
X189520286Y-78867000D01*
X189447714Y-78963762D01*
X189375143Y-79157285D01*
X189302571Y-79254047D01*
X189230000Y-79302428D01*
X189084857Y-79350809D01*
X188939714Y-79350809D01*
X188794571Y-79302428D01*
X188722000Y-79254047D01*
X188649429Y-79157285D01*
X188649429Y-78915381D01*
X188722000Y-78770238D01*
X188649429Y-78479952D02*
X188649429Y-77899381D01*
X190173429Y-78189666D02*
X188649429Y-78189666D01*
X189738000Y-77609095D02*
X189738000Y-77125286D01*
X190173429Y-77705857D02*
X188649429Y-77367190D01*
X190173429Y-77028524D01*
X188649429Y-76835000D02*
X188649429Y-76254429D01*
X190173429Y-76544714D02*
X188649429Y-76544714D01*
X188649429Y-75915762D02*
X189883143Y-75915762D01*
X190028286Y-75867381D01*
X190100857Y-75819000D01*
X190173429Y-75722238D01*
X190173429Y-75528715D01*
X190100857Y-75431953D01*
X190028286Y-75383572D01*
X189883143Y-75335191D01*
X188649429Y-75335191D01*
X190100857Y-74899762D02*
X190173429Y-74754619D01*
X190173429Y-74512715D01*
X190100857Y-74415953D01*
X190028286Y-74367572D01*
X189883143Y-74319191D01*
X189738000Y-74319191D01*
X189592857Y-74367572D01*
X189520286Y-74415953D01*
X189447714Y-74512715D01*
X189375143Y-74706238D01*
X189302571Y-74803000D01*
X189230000Y-74851381D01*
X189084857Y-74899762D01*
X188939714Y-74899762D01*
X188794571Y-74851381D01*
X188722000Y-74803000D01*
X188649429Y-74706238D01*
X188649429Y-74464334D01*
X188722000Y-74319191D01*
D14*
X132762858Y-79188571D02*
X133691429Y-79188571D01*
X133191429Y-79760000D01*
X133405715Y-79760000D01*
X133548572Y-79831429D01*
X133620001Y-79902857D01*
X133691429Y-80045714D01*
X133691429Y-80402857D01*
X133620001Y-80545714D01*
X133548572Y-80617143D01*
X133405715Y-80688571D01*
X132977143Y-80688571D01*
X132834286Y-80617143D01*
X132762858Y-80545714D01*
X134120000Y-79188571D02*
X134620000Y-80688571D01*
X135120000Y-79188571D01*
X135477143Y-79188571D02*
X136405714Y-79188571D01*
X135905714Y-79760000D01*
X136120000Y-79760000D01*
X136262857Y-79831429D01*
X136334286Y-79902857D01*
X136405714Y-80045714D01*
X136405714Y-80402857D01*
X136334286Y-80545714D01*
X136262857Y-80617143D01*
X136120000Y-80688571D01*
X135691428Y-80688571D01*
X135548571Y-80617143D01*
X135477143Y-80545714D01*
X138477858Y-79188571D02*
X139406429Y-79188571D01*
X138906429Y-79760000D01*
X139120715Y-79760000D01*
X139263572Y-79831429D01*
X139335001Y-79902857D01*
X139406429Y-80045714D01*
X139406429Y-80402857D01*
X139335001Y-80545714D01*
X139263572Y-80617143D01*
X139120715Y-80688571D01*
X138692143Y-80688571D01*
X138549286Y-80617143D01*
X138477858Y-80545714D01*
X139835000Y-79188571D02*
X140335000Y-80688571D01*
X140835000Y-79188571D01*
X141192143Y-79188571D02*
X142120714Y-79188571D01*
X141620714Y-79760000D01*
X141835000Y-79760000D01*
X141977857Y-79831429D01*
X142049286Y-79902857D01*
X142120714Y-80045714D01*
X142120714Y-80402857D01*
X142049286Y-80545714D01*
X141977857Y-80617143D01*
X141835000Y-80688571D01*
X141406428Y-80688571D01*
X141263571Y-80617143D01*
X141192143Y-80545714D01*
X146399287Y-79188571D02*
X145685001Y-79188571D01*
X145613572Y-79902857D01*
X145685001Y-79831429D01*
X145827858Y-79760000D01*
X146185001Y-79760000D01*
X146327858Y-79831429D01*
X146399287Y-79902857D01*
X146470715Y-80045714D01*
X146470715Y-80402857D01*
X146399287Y-80545714D01*
X146327858Y-80617143D01*
X146185001Y-80688571D01*
X145827858Y-80688571D01*
X145685001Y-80617143D01*
X145613572Y-80545714D01*
X146899286Y-79188571D02*
X147399286Y-80688571D01*
X147899286Y-79188571D01*
X127341429Y-80688571D02*
X126484286Y-80688571D01*
X126912858Y-80688571D02*
X126912858Y-79188571D01*
X126770001Y-79402857D01*
X126627143Y-79545714D01*
X126484286Y-79617143D01*
X128270000Y-79188571D02*
X128412857Y-79188571D01*
X128555714Y-79260000D01*
X128627143Y-79331429D01*
X128698572Y-79474286D01*
X128770000Y-79760000D01*
X128770000Y-80117143D01*
X128698572Y-80402857D01*
X128627143Y-80545714D01*
X128555714Y-80617143D01*
X128412857Y-80688571D01*
X128270000Y-80688571D01*
X128127143Y-80617143D01*
X128055714Y-80545714D01*
X127984286Y-80402857D01*
X127912857Y-80117143D01*
X127912857Y-79760000D01*
X127984286Y-79474286D01*
X128055714Y-79331429D01*
X128127143Y-79260000D01*
X128270000Y-79188571D01*
X129198571Y-79188571D02*
X129698571Y-80688571D01*
X130198571Y-79188571D01*
D17*
X116240000Y-80280000D02*
X116240000Y-80380000D01*
X116140000Y-80230000D02*
X116490000Y-80230000D01*
X116490000Y-80230000D02*
G75*
G03X116140000Y-80580000I700000J-1050000D01*
G01*
X116140000Y-80230000D02*
X116140000Y-80580000D01*
X121604214Y-83280000D02*
G75*
G03X121604214Y-83280000I-1414214J0D01*
G01*
X118190000Y-86280000D02*
X122190000Y-86280000D01*
X118190000Y-80280000D02*
X122190000Y-80280000D01*
X117190000Y-84030000D02*
X117190000Y-82530000D01*
X123190000Y-82530000D02*
X123190000Y-84030000D01*
D10*
X117190000Y-83280000D02*
X117190000Y-83280000D01*
X122190000Y-86280000D02*
X118190000Y-86280000D01*
X122190000Y-80280000D02*
X118190000Y-80280000D01*
X123190000Y-83280000D02*
X123190000Y-83280000D01*
X121604214Y-83280000D02*
G75*
G03X121604214Y-83280000I-1414214J0D01*
G01*
D17*
X150180000Y-80090000D02*
X150180000Y-80190000D01*
X150080000Y-80040000D02*
X150430000Y-80040000D01*
X150430000Y-80040000D02*
G75*
G03X150080000Y-80390000I700000J-1050000D01*
G01*
X150080000Y-80040000D02*
X150080000Y-80390000D01*
X155544214Y-83090000D02*
G75*
G03X155544214Y-83090000I-1414214J0D01*
G01*
X152130000Y-86090000D02*
X156130000Y-86090000D01*
X152130000Y-80090000D02*
X156130000Y-80090000D01*
X151130000Y-83840000D02*
X151130000Y-82340000D01*
X157130000Y-82340000D02*
X157130000Y-83840000D01*
D10*
X151130000Y-83090000D02*
X151130000Y-83090000D01*
X156130000Y-86090000D02*
X152130000Y-86090000D01*
X156130000Y-80090000D02*
X152130000Y-80090000D01*
X157130000Y-83090000D02*
X157130000Y-83090000D01*
X155544214Y-83090000D02*
G75*
G03X155544214Y-83090000I-1414214J0D01*
G01*
D17*
X103585000Y-58100000D02*
X103685000Y-58100000D01*
X103535000Y-58200000D02*
X103535000Y-57850000D01*
X103535000Y-57850000D02*
G75*
G03X103885000Y-58200000I1050000J700000D01*
G01*
X103535000Y-58200000D02*
X103885000Y-58200000D01*
X107999214Y-54150000D02*
G75*
G03X107999214Y-54150000I-1414214J0D01*
G01*
X109585000Y-56150000D02*
X109585000Y-52150000D01*
X103585000Y-56150000D02*
X103585000Y-52150000D01*
X107335000Y-57150000D02*
X105835000Y-57150000D01*
X105835000Y-51150000D02*
X107335000Y-51150000D01*
D10*
X106585000Y-57150000D02*
X106585000Y-57150000D01*
X109585000Y-52150000D02*
X109585000Y-56150000D01*
X103585000Y-52150000D02*
X103585000Y-56150000D01*
X106585000Y-51150000D02*
X106585000Y-51150000D01*
X107999214Y-54150000D02*
G75*
G03X107999214Y-54150000I-1414214J0D01*
G01*
D18*
X114825000Y-49125000D02*
X114825000Y-63425000D01*
X114825000Y-49125000D02*
X160525000Y-49125000D01*
D14*
X168825000Y-46225000D02*
X168825000Y-72425000D01*
X112025000Y-46225000D02*
X168825000Y-46225000D01*
X112025000Y-72425000D02*
X168825000Y-72425000D01*
X112025000Y-46225000D02*
X112025000Y-72425000D01*
D18*
X114825000Y-63425000D02*
X160525000Y-63425000D01*
X160525000Y-49125000D02*
X160525000Y-63425000D01*
D17*
X104013000Y-66421000D02*
X104013000Y-71501000D01*
X103733000Y-63601000D02*
X105283000Y-63601000D01*
X106553000Y-63881000D02*
X106553000Y-66421000D01*
X106553000Y-66421000D02*
X104013000Y-66421000D01*
X104013000Y-71501000D02*
X109093000Y-71501000D01*
X109093000Y-71501000D02*
X109093000Y-66421000D01*
X103733000Y-63601000D02*
X103733000Y-65151000D01*
X109093000Y-63881000D02*
X106553000Y-63881000D01*
X109093000Y-66421000D02*
X109093000Y-63881000D01*
D18*
X138021000Y-38787000D02*
X138021000Y-42037000D01*
X124271000Y-38787000D02*
X138021000Y-38787000D01*
X124271000Y-45287000D02*
X124271000Y-38787000D01*
X138021000Y-45287000D02*
X124271000Y-45287000D01*
X138021000Y-42037000D02*
X138021000Y-45287000D01*
D17*
X136271000Y-40487000D02*
X137821000Y-40487000D01*
X137821000Y-40487000D02*
X137821000Y-43587000D01*
X137821000Y-43587000D02*
X136271000Y-43587000D01*
X135001000Y-43307000D02*
X124841000Y-43307000D01*
X124841000Y-43307000D02*
X124841000Y-40767000D01*
X124841000Y-40767000D02*
X135001000Y-40767000D01*
X135001000Y-43307000D02*
X135001000Y-40767000D01*
D18*
X169009000Y-38787000D02*
X169009000Y-45287000D01*
X163009000Y-38787000D02*
X169009000Y-38787000D01*
X163009000Y-45287000D02*
X163009000Y-38787000D01*
X169009000Y-45287000D02*
X163009000Y-45287000D01*
D17*
X168809000Y-42037000D02*
X168809000Y-43587000D01*
X167259000Y-43587000D02*
X168809000Y-43587000D01*
X168529000Y-40767000D02*
X165989000Y-40767000D01*
X163449000Y-43307000D02*
X165989000Y-43307000D01*
X165989000Y-43307000D02*
X165989000Y-40767000D01*
X165989000Y-40767000D02*
X163449000Y-40767000D01*
X163449000Y-40767000D02*
X163449000Y-43307000D01*
D18*
X201116000Y-71917500D02*
X197866000Y-71917500D01*
X201116000Y-55667500D02*
X201116000Y-71917500D01*
X194616000Y-55667500D02*
X201116000Y-55667500D01*
X194616000Y-71917500D02*
X194616000Y-55667500D01*
X197866000Y-71917500D02*
X194616000Y-71917500D01*
D17*
X196596000Y-68897500D02*
X196596000Y-56197500D01*
X196596000Y-56197500D02*
X199136000Y-56197500D01*
X199136000Y-56197500D02*
X199136000Y-68897500D01*
X196316000Y-71717500D02*
X196316000Y-70167500D01*
X196596000Y-68897500D02*
X199136000Y-68897500D01*
X199416000Y-70167500D02*
X199416000Y-71717500D01*
X199416000Y-71717500D02*
X196316000Y-71717500D01*
X192308480Y-46863000D02*
X192308480Y-39243000D01*
X192308480Y-55245000D02*
X192308480Y-50165000D01*
X180116480Y-46863000D02*
X180116480Y-39243000D01*
X180116480Y-55245000D02*
X180116480Y-50165000D01*
X180116480Y-39243000D02*
X192308480Y-39243000D01*
X192308480Y-55245000D02*
X180116480Y-55245000D01*
X155704920Y-69769598D02*
X155657301Y-69864836D01*
X155657301Y-70007693D01*
X155704920Y-70150551D01*
X155800158Y-70245789D01*
X155895396Y-70293408D01*
X156085872Y-70341027D01*
X156228730Y-70341027D01*
X156419206Y-70293408D01*
X156514444Y-70245789D01*
X156609682Y-70150551D01*
X156657301Y-70007693D01*
X156657301Y-69912455D01*
X156609682Y-69769598D01*
X156562063Y-69721979D01*
X156228730Y-69721979D01*
X156228730Y-69912455D01*
X155657301Y-69436265D02*
X155657301Y-68864836D01*
X156657301Y-69150551D02*
X155657301Y-69150551D01*
X156657301Y-68007693D02*
X156657301Y-68579122D01*
X156657301Y-68293408D02*
X155657301Y-68293408D01*
X155800158Y-68388646D01*
X155895396Y-68483884D01*
X155943015Y-68579122D01*
X118856667Y-87684762D02*
X118999524Y-87732381D01*
X119237620Y-87732381D01*
X119332858Y-87684762D01*
X119380477Y-87637143D01*
X119428096Y-87541905D01*
X119428096Y-87446667D01*
X119380477Y-87351429D01*
X119332858Y-87303810D01*
X119237620Y-87256190D01*
X119047143Y-87208571D01*
X118951905Y-87160952D01*
X118904286Y-87113333D01*
X118856667Y-87018095D01*
X118856667Y-86922857D01*
X118904286Y-86827619D01*
X118951905Y-86780000D01*
X119047143Y-86732381D01*
X119285239Y-86732381D01*
X119428096Y-86780000D01*
X119761429Y-86732381D02*
X119999524Y-87732381D01*
X120190001Y-87018095D01*
X120380477Y-87732381D01*
X120618572Y-86732381D01*
X121523334Y-87732381D02*
X120951905Y-87732381D01*
X121237619Y-87732381D02*
X121237619Y-86732381D01*
X121142381Y-86875238D01*
X121047143Y-86970476D01*
X120951905Y-87018095D01*
X152796667Y-87494762D02*
X152939524Y-87542381D01*
X153177620Y-87542381D01*
X153272858Y-87494762D01*
X153320477Y-87447143D01*
X153368096Y-87351905D01*
X153368096Y-87256667D01*
X153320477Y-87161429D01*
X153272858Y-87113810D01*
X153177620Y-87066190D01*
X152987143Y-87018571D01*
X152891905Y-86970952D01*
X152844286Y-86923333D01*
X152796667Y-86828095D01*
X152796667Y-86732857D01*
X152844286Y-86637619D01*
X152891905Y-86590000D01*
X152987143Y-86542381D01*
X153225239Y-86542381D01*
X153368096Y-86590000D01*
X153701429Y-86542381D02*
X153939524Y-87542381D01*
X154130001Y-86828095D01*
X154320477Y-87542381D01*
X154558572Y-86542381D01*
X154891905Y-86637619D02*
X154939524Y-86590000D01*
X155034762Y-86542381D01*
X155272858Y-86542381D01*
X155368096Y-86590000D01*
X155415715Y-86637619D01*
X155463334Y-86732857D01*
X155463334Y-86828095D01*
X155415715Y-86970952D01*
X154844286Y-87542381D01*
X155463334Y-87542381D01*
X109982095Y-46950381D02*
X109982095Y-47759905D01*
X110029714Y-47855143D01*
X110077333Y-47902762D01*
X110172571Y-47950381D01*
X110363048Y-47950381D01*
X110458286Y-47902762D01*
X110505905Y-47855143D01*
X110553524Y-47759905D01*
X110553524Y-46950381D01*
X110934476Y-46950381D02*
X111553524Y-46950381D01*
X111220190Y-47331333D01*
X111363048Y-47331333D01*
X111458286Y-47378952D01*
X111505905Y-47426571D01*
X111553524Y-47521810D01*
X111553524Y-47759905D01*
X111505905Y-47855143D01*
X111458286Y-47902762D01*
X111363048Y-47950381D01*
X111077333Y-47950381D01*
X110982095Y-47902762D01*
X110934476Y-47855143D01*
X104417905Y-62936381D02*
X104417905Y-61936381D01*
X104798858Y-61936381D01*
X104894096Y-61984000D01*
X104941715Y-62031619D01*
X104989334Y-62126857D01*
X104989334Y-62269714D01*
X104941715Y-62364952D01*
X104894096Y-62412571D01*
X104798858Y-62460190D01*
X104417905Y-62460190D01*
X105322667Y-61936381D02*
X105941715Y-61936381D01*
X105608381Y-62317333D01*
X105751239Y-62317333D01*
X105846477Y-62364952D01*
X105894096Y-62412571D01*
X105941715Y-62507810D01*
X105941715Y-62745905D01*
X105894096Y-62841143D01*
X105846477Y-62888762D01*
X105751239Y-62936381D01*
X105465524Y-62936381D01*
X105370286Y-62888762D01*
X105322667Y-62841143D01*
X138707905Y-45410381D02*
X138707905Y-44410381D01*
X139088858Y-44410381D01*
X139184096Y-44458000D01*
X139231715Y-44505619D01*
X139279334Y-44600857D01*
X139279334Y-44743714D01*
X139231715Y-44838952D01*
X139184096Y-44886571D01*
X139088858Y-44934190D01*
X138707905Y-44934190D01*
X140231715Y-45410381D02*
X139660286Y-45410381D01*
X139946000Y-45410381D02*
X139946000Y-44410381D01*
X139850762Y-44553238D01*
X139755524Y-44648476D01*
X139660286Y-44696095D01*
X169695905Y-46426381D02*
X169695905Y-45426381D01*
X170076858Y-45426381D01*
X170172096Y-45474000D01*
X170219715Y-45521619D01*
X170267334Y-45616857D01*
X170267334Y-45759714D01*
X170219715Y-45854952D01*
X170172096Y-45902571D01*
X170076858Y-45950190D01*
X169695905Y-45950190D01*
X170648286Y-45521619D02*
X170695905Y-45474000D01*
X170791143Y-45426381D01*
X171029239Y-45426381D01*
X171124477Y-45474000D01*
X171172096Y-45521619D01*
X171219715Y-45616857D01*
X171219715Y-45712095D01*
X171172096Y-45854952D01*
X170600667Y-46426381D01*
X171219715Y-46426381D01*
X197127905Y-73604381D02*
X197127905Y-72604381D01*
X197508858Y-72604381D01*
X197604096Y-72652000D01*
X197651715Y-72699619D01*
X197699334Y-72794857D01*
X197699334Y-72937714D01*
X197651715Y-73032952D01*
X197604096Y-73080571D01*
X197508858Y-73128190D01*
X197127905Y-73128190D01*
X198604096Y-72604381D02*
X198127905Y-72604381D01*
X198080286Y-73080571D01*
X198127905Y-73032952D01*
X198223143Y-72985333D01*
X198461239Y-72985333D01*
X198556477Y-73032952D01*
X198604096Y-73080571D01*
X198651715Y-73175810D01*
X198651715Y-73413905D01*
X198604096Y-73509143D01*
X198556477Y-73556762D01*
X198461239Y-73604381D01*
X198223143Y-73604381D01*
X198127905Y-73556762D01*
X198080286Y-73509143D01*
X185474385Y-42616381D02*
X185474385Y-41616381D01*
X185855338Y-41616381D01*
X185950576Y-41664000D01*
X185998195Y-41711619D01*
X186045814Y-41806857D01*
X186045814Y-41949714D01*
X185998195Y-42044952D01*
X185950576Y-42092571D01*
X185855338Y-42140190D01*
X185474385Y-42140190D01*
X186902957Y-41949714D02*
X186902957Y-42616381D01*
X186664861Y-41568762D02*
X186426766Y-42283048D01*
X187045814Y-42283048D01*
M02*
