G04 #@! TF.FileFunction,Soldermask,Bot*
%FSLAX46Y46*%
G04 Gerber Fmt 4.6, Leading zero omitted, Abs format (unit mm)*
G04 Created by KiCad (PCBNEW 4.0.3-stable) date 09/02/16 18:28:01*
%MOMM*%
%LPD*%
G01*
G04 APERTURE LIST*
%ADD10C,0.100000*%
%ADD11R,0.602400X0.742400*%
%ADD12R,1.402400X1.652400*%
%ADD13R,1.752400X0.702400*%
%ADD14R,0.702400X1.752400*%
%ADD15R,2.151380X5.651500*%
%ADD16R,1.352400X0.902400*%
%ADD17R,1.652400X1.402400*%
%ADD18R,0.902400X1.352400*%
%ADD19R,1.676400X1.676400*%
%ADD20C,2.184400*%
%ADD21R,3.652520X1.953260*%
%ADD22R,3.652400X3.652400*%
%ADD23R,1.652400X1.452400*%
%ADD24R,1.352400X1.052400*%
%ADD25R,1.052400X1.352400*%
%ADD26R,1.452400X1.652400*%
%ADD27C,1.852400*%
%ADD28R,0.752400X1.702400*%
%ADD29C,1.952400*%
%ADD30C,1.352400*%
%ADD31R,2.652400X2.152400*%
%ADD32R,2.152400X2.652400*%
%ADD33R,4.152900X2.852420*%
%ADD34R,1.879600X1.879600*%
%ADD35O,1.879600X1.879600*%
%ADD36R,0.952500X0.952500*%
%ADD37R,3.810000X2.184400*%
%ADD38R,1.168400X2.184400*%
%ADD39R,1.902400X0.602400*%
%ADD40R,1.652400X0.752400*%
%ADD41R,1.212400X0.802400*%
%ADD42R,1.652400X0.602400*%
%ADD43R,0.802400X1.212400*%
%ADD44R,1.702400X0.752400*%
%ADD45C,6.552400*%
%ADD46C,0.752400*%
%ADD47R,1.879600X2.184400*%
%ADD48O,1.879600X2.184400*%
%ADD49R,2.184400X1.879600*%
%ADD50O,2.184400X1.879600*%
%ADD51C,1.676400*%
%ADD52C,2.852420*%
%ADD53R,2.651760X1.653540*%
%ADD54R,9.692640X9.692640*%
G04 APERTURE END LIST*
D10*
D11*
X161925000Y-56300000D03*
X161925000Y-54190000D03*
X165227000Y-54190000D03*
X165227000Y-56300000D03*
D12*
X115443000Y-47478000D03*
X115443000Y-44978000D03*
D13*
X141410000Y-49397000D03*
X141410000Y-50197000D03*
X141410000Y-50997000D03*
X141410000Y-51797000D03*
X141410000Y-52597000D03*
X141410000Y-53397000D03*
X141410000Y-54197000D03*
X141410000Y-54997000D03*
D14*
X139960000Y-56447000D03*
X139160000Y-56447000D03*
X138360000Y-56447000D03*
X137560000Y-56447000D03*
X136760000Y-56447000D03*
X135960000Y-56447000D03*
X135160000Y-56447000D03*
X134360000Y-56447000D03*
D13*
X132910000Y-54997000D03*
X132910000Y-54197000D03*
X132910000Y-53397000D03*
X132910000Y-52597000D03*
X132910000Y-51797000D03*
X132910000Y-50997000D03*
X132910000Y-50197000D03*
X132910000Y-49397000D03*
D14*
X134360000Y-47947000D03*
X135160000Y-47947000D03*
X135960000Y-47947000D03*
X136760000Y-47947000D03*
X137560000Y-47947000D03*
X138360000Y-47947000D03*
X139160000Y-47947000D03*
X139960000Y-47947000D03*
D15*
X149860000Y-59436000D03*
X149860000Y-50038000D03*
D12*
X121539000Y-44978000D03*
X121539000Y-47478000D03*
D16*
X129728000Y-51435000D03*
X127828000Y-51435000D03*
D17*
X130068000Y-75565000D03*
X132568000Y-75565000D03*
D16*
X115885000Y-59309000D03*
X113985000Y-59309000D03*
D17*
X134767000Y-75565000D03*
X137267000Y-75565000D03*
D16*
X144211000Y-50927000D03*
X146111000Y-50927000D03*
D17*
X113685000Y-63373000D03*
X116185000Y-63373000D03*
D16*
X129728000Y-54229000D03*
X127828000Y-54229000D03*
D18*
X128651000Y-62291000D03*
X128651000Y-60391000D03*
X114808000Y-84262000D03*
X114808000Y-82362000D03*
X154178000Y-84008000D03*
X154178000Y-82108000D03*
X154305000Y-50612000D03*
X154305000Y-52512000D03*
D16*
X179136000Y-55245000D03*
X181036000Y-55245000D03*
D18*
X145923000Y-54422000D03*
X145923000Y-56322000D03*
X144399000Y-55311000D03*
X144399000Y-57211000D03*
D16*
X178628000Y-76962000D03*
X180528000Y-76962000D03*
D18*
X189738000Y-60772000D03*
X189738000Y-62672000D03*
X188087000Y-70419000D03*
X188087000Y-68519000D03*
X176784000Y-70419000D03*
X176784000Y-68519000D03*
D16*
X161610000Y-73469500D03*
X163510000Y-73469500D03*
X161737000Y-82105500D03*
X163637000Y-82105500D03*
X156525000Y-62992000D03*
X154625000Y-62992000D03*
D17*
X194417000Y-75819000D03*
X191917000Y-75819000D03*
D16*
X194117000Y-78359000D03*
X192217000Y-78359000D03*
D19*
X192201800Y-81534000D03*
X186766200Y-81534000D03*
D20*
X189484000Y-81534000D03*
D19*
X192201800Y-84709000D03*
X186766200Y-84709000D03*
D20*
X189484000Y-84709000D03*
D21*
X166329360Y-51435000D03*
X161330640Y-51435000D03*
D19*
X195580000Y-54533800D03*
X195580000Y-49098200D03*
D20*
X195580000Y-51816000D03*
D19*
X176911000Y-54533800D03*
X176911000Y-49098200D03*
D20*
X176911000Y-51816000D03*
D19*
X128270000Y-86588600D03*
X128270000Y-81153000D03*
D20*
X128270000Y-83870800D03*
D19*
X140335000Y-86537800D03*
X140335000Y-81102200D03*
D20*
X140335000Y-83820000D03*
D19*
X146685000Y-86537800D03*
X146685000Y-81102200D03*
D20*
X146685000Y-83820000D03*
D19*
X134620000Y-86537800D03*
X134620000Y-81102200D03*
D20*
X134620000Y-83820000D03*
D22*
X172085000Y-41046400D03*
X172085000Y-47853600D03*
D23*
X182325000Y-53340000D03*
X179625000Y-53340000D03*
X194517000Y-73025000D03*
X191817000Y-73025000D03*
D24*
X118089500Y-75565000D03*
X120289500Y-75565000D03*
X118076800Y-77546200D03*
X120276800Y-77546200D03*
X123106000Y-77597000D03*
X125306000Y-77597000D03*
X123149000Y-75565000D03*
X125349000Y-75565000D03*
D25*
X119507000Y-45128000D03*
X119507000Y-47328000D03*
X117475000Y-45128000D03*
X117475000Y-47328000D03*
X141351000Y-62822000D03*
X141351000Y-60622000D03*
X143383000Y-62822000D03*
X143383000Y-60622000D03*
D24*
X117391000Y-49403000D03*
X119591000Y-49403000D03*
X116035000Y-61214000D03*
X113835000Y-61214000D03*
D25*
X173228000Y-55710000D03*
X173228000Y-53510000D03*
D24*
X173185000Y-51435000D03*
X170985000Y-51435000D03*
D26*
X196977000Y-74215000D03*
X196977000Y-76915000D03*
X199263000Y-74215000D03*
X199263000Y-76915000D03*
D25*
X139344400Y-60622000D03*
X139344400Y-62822000D03*
X137350500Y-60622000D03*
X137350500Y-62822000D03*
X135280400Y-60622000D03*
X135280400Y-62822000D03*
X108458000Y-74465000D03*
X108458000Y-76665000D03*
D24*
X144043400Y-45377100D03*
X146243400Y-45377100D03*
X139743000Y-45364400D03*
X141943000Y-45364400D03*
X144065900Y-49136300D03*
X146265900Y-49136300D03*
X144061000Y-47269400D03*
X146261000Y-47269400D03*
D25*
X106426000Y-74465000D03*
X106426000Y-76665000D03*
D24*
X134967800Y-45072300D03*
X137167800Y-45072300D03*
D25*
X104394000Y-74465000D03*
X104394000Y-76665000D03*
D26*
X199263000Y-50466000D03*
X199263000Y-53166000D03*
X176911000Y-46562000D03*
X176911000Y-43862000D03*
D24*
X119042000Y-84074000D03*
X121242000Y-84074000D03*
X119042000Y-82296000D03*
X121242000Y-82296000D03*
D26*
X125476000Y-82136000D03*
X125476000Y-84836000D03*
D25*
X188429900Y-48280500D03*
X188429900Y-46080500D03*
D24*
X183474000Y-68580000D03*
X185674000Y-68580000D03*
X192067000Y-67691000D03*
X194267000Y-67691000D03*
X192067000Y-70358000D03*
X194267000Y-70358000D03*
X179113000Y-68580000D03*
X181313000Y-68580000D03*
D26*
X137477500Y-82470000D03*
X137477500Y-85170000D03*
D25*
X143573500Y-82720000D03*
X143573500Y-84920000D03*
D26*
X131445000Y-82470000D03*
X131445000Y-85170000D03*
D25*
X119507000Y-40683000D03*
X119507000Y-42883000D03*
X117475000Y-40683000D03*
X117475000Y-42883000D03*
D27*
X123190000Y-85280000D03*
X117190000Y-85280000D03*
X123190000Y-81280000D03*
X117190000Y-81280000D03*
X157130000Y-85090000D03*
X151130000Y-85090000D03*
X157130000Y-81090000D03*
X151130000Y-81090000D03*
X108585000Y-51150000D03*
X108585000Y-57150000D03*
X104585000Y-51150000D03*
X104585000Y-57150000D03*
D28*
X116586000Y-51656000D03*
X117856000Y-51656000D03*
X119126000Y-51656000D03*
X120396000Y-51656000D03*
X120396000Y-57056000D03*
X119126000Y-57056000D03*
X117856000Y-57056000D03*
X116586000Y-57056000D03*
D29*
X169575000Y-55185000D03*
X169575000Y-57685000D03*
D30*
X142875000Y-73025000D03*
X132375000Y-73025000D03*
X141375000Y-73025000D03*
X139875000Y-73025000D03*
X138375000Y-73025000D03*
X136875000Y-73025000D03*
X135375000Y-73025000D03*
X133875000Y-73025000D03*
D31*
X113411000Y-56229000D03*
X113411000Y-52229000D03*
D32*
X125063000Y-66421000D03*
X121063000Y-66421000D03*
D31*
X157480000Y-51054000D03*
X157480000Y-55054000D03*
D32*
X151987000Y-42037000D03*
X147987000Y-42037000D03*
X140113000Y-42037000D03*
X144113000Y-42037000D03*
X181896000Y-43307000D03*
X185896000Y-43307000D03*
D33*
X156131260Y-59690000D03*
X163908740Y-59690000D03*
D32*
X167405300Y-84582000D03*
X171405300Y-84582000D03*
X157067000Y-75565000D03*
X153067000Y-75565000D03*
D17*
X186162000Y-48260000D03*
X183662000Y-48260000D03*
D32*
X169450000Y-60960000D03*
X173450000Y-60960000D03*
D31*
X189103000Y-74073000D03*
X189103000Y-78073000D03*
X124968000Y-55975000D03*
X124968000Y-51975000D03*
D11*
X175768000Y-58420000D03*
X175768000Y-56310000D03*
D34*
X105283000Y-65151000D03*
D35*
X107823000Y-65151000D03*
X105283000Y-67691000D03*
X107823000Y-67691000D03*
X105283000Y-70231000D03*
X107823000Y-70231000D03*
D36*
X127442000Y-49133760D03*
X125542000Y-49133760D03*
X126492000Y-47134780D03*
D37*
X157988000Y-41275000D03*
D38*
X157988000Y-47879000D03*
X155702000Y-47879000D03*
X160274000Y-47879000D03*
D39*
X179026000Y-65947000D03*
X179026000Y-65297000D03*
X179026000Y-64647000D03*
X179026000Y-63997000D03*
X179026000Y-63347000D03*
X179026000Y-62697000D03*
X179026000Y-62047000D03*
X179026000Y-61397000D03*
X179026000Y-60747000D03*
X179026000Y-60097000D03*
X179026000Y-59447000D03*
X179026000Y-58797000D03*
X179026000Y-58147000D03*
X179026000Y-57497000D03*
X186226000Y-57497000D03*
X186226000Y-58147000D03*
X186226000Y-58797000D03*
X186226000Y-59447000D03*
X186226000Y-60097000D03*
X186226000Y-60747000D03*
X186226000Y-61397000D03*
X186226000Y-62047000D03*
X186226000Y-62697000D03*
X186226000Y-63347000D03*
X186226000Y-63997000D03*
X186226000Y-64647000D03*
X186226000Y-65297000D03*
X186226000Y-65947000D03*
D40*
X183802000Y-78740000D03*
X183802000Y-80010000D03*
X183802000Y-81280000D03*
X183802000Y-82550000D03*
X183802000Y-83820000D03*
X183802000Y-85090000D03*
X183802000Y-86360000D03*
X178402000Y-86360000D03*
X178402000Y-85090000D03*
X178402000Y-83820000D03*
X178402000Y-82550000D03*
X178402000Y-81280000D03*
X178402000Y-80010000D03*
X178402000Y-78740000D03*
D41*
X192895400Y-54411800D03*
X192895400Y-55361800D03*
X192895400Y-56311800D03*
X190695400Y-56311800D03*
X190695400Y-54411800D03*
X190695400Y-55361800D03*
D42*
X185449000Y-69988000D03*
X185449000Y-70638000D03*
X185449000Y-71288000D03*
X185449000Y-71938000D03*
X185449000Y-72588000D03*
X185449000Y-73238000D03*
X185449000Y-73888000D03*
X185449000Y-74538000D03*
X179549000Y-74538000D03*
X179549000Y-73888000D03*
X179549000Y-73238000D03*
X179549000Y-72588000D03*
X179549000Y-71938000D03*
X179549000Y-71288000D03*
X179549000Y-70638000D03*
X179549000Y-69988000D03*
D43*
X193487000Y-60114000D03*
X194437000Y-60114000D03*
X195387000Y-60114000D03*
X195387000Y-62314000D03*
X193487000Y-62314000D03*
X194437000Y-62314000D03*
D25*
X129794000Y-46779000D03*
X129794000Y-48979000D03*
D44*
X120617000Y-63246000D03*
X120617000Y-61976000D03*
X120617000Y-60706000D03*
X120617000Y-59436000D03*
X126017000Y-59436000D03*
X126017000Y-60706000D03*
X126017000Y-61976000D03*
X126017000Y-63246000D03*
D45*
X106680000Y-43180000D03*
D46*
X109080000Y-43180000D03*
X108377056Y-44877056D03*
X106680000Y-45580000D03*
X104982944Y-44877056D03*
X104280000Y-43180000D03*
X104982944Y-41482944D03*
X106680000Y-40780000D03*
X108377056Y-41482944D03*
D45*
X106680000Y-83960000D03*
D46*
X109080000Y-83960000D03*
X108377056Y-85657056D03*
X106680000Y-86360000D03*
X104982944Y-85657056D03*
X104280000Y-83960000D03*
X104982944Y-82262944D03*
X106680000Y-81560000D03*
X108377056Y-82262944D03*
D45*
X198260000Y-83820000D03*
D46*
X200660000Y-83820000D03*
X199957056Y-85517056D03*
X198260000Y-86220000D03*
X196562944Y-85517056D03*
X195860000Y-83820000D03*
X196562944Y-82122944D03*
X198260000Y-81420000D03*
X199957056Y-82122944D03*
D45*
X198120000Y-43180000D03*
D46*
X200520000Y-43180000D03*
X199817056Y-44877056D03*
X198120000Y-45580000D03*
X196422944Y-44877056D03*
X195720000Y-43180000D03*
X196422944Y-41482944D03*
X198120000Y-40780000D03*
X199817056Y-41482944D03*
D47*
X136271000Y-42037000D03*
D48*
X133731000Y-42037000D03*
X131191000Y-42037000D03*
X128651000Y-42037000D03*
X126111000Y-42037000D03*
D34*
X167259000Y-42037000D03*
D35*
X164719000Y-42037000D03*
D49*
X197866000Y-70167500D03*
D50*
X197866000Y-67627500D03*
X197866000Y-65087500D03*
X197866000Y-62547500D03*
X197866000Y-60007500D03*
X197866000Y-57467500D03*
D51*
X187482480Y-53213000D03*
X184942480Y-53213000D03*
X184942480Y-51214020D03*
X187482480Y-51214020D03*
D52*
X192211960Y-48514000D03*
X180213000Y-48514000D03*
D53*
X162966764Y-70220840D03*
X162966764Y-65669160D03*
D54*
X169865404Y-67945000D03*
D53*
X162966764Y-80123802D03*
X162966764Y-75572122D03*
D54*
X169865404Y-77847962D03*
D53*
X157480000Y-66939160D03*
X157480000Y-71490840D03*
D54*
X150581360Y-69215000D03*
M02*
