G04 #@! TF.FileFunction,Soldermask,Top*
%FSLAX46Y46*%
G04 Gerber Fmt 4.6, Leading zero omitted, Abs format (unit mm)*
G04 Created by KiCad (PCBNEW 4.0.3-stable) date 09/02/16 18:28:01*
%MOMM*%
%LPD*%
G01*
G04 APERTURE LIST*
%ADD10C,0.100000*%
%ADD11C,2.184400*%
%ADD12C,1.852400*%
%ADD13C,1.952400*%
%ADD14C,1.352400*%
%ADD15R,1.879600X1.879600*%
%ADD16O,1.879600X1.879600*%
%ADD17C,6.552400*%
%ADD18C,0.752400*%
%ADD19R,1.879600X2.184400*%
%ADD20O,1.879600X2.184400*%
%ADD21R,2.184400X1.879600*%
%ADD22O,2.184400X1.879600*%
%ADD23C,1.676400*%
%ADD24C,2.852420*%
G04 APERTURE END LIST*
D10*
D11*
X189484000Y-81534000D03*
X189484000Y-84709000D03*
X195580000Y-51816000D03*
X176911000Y-51816000D03*
X128270000Y-83870800D03*
X140335000Y-83820000D03*
X146685000Y-83820000D03*
X134620000Y-83820000D03*
D12*
X123190000Y-85280000D03*
X117190000Y-85280000D03*
X123190000Y-81280000D03*
X117190000Y-81280000D03*
X157130000Y-85090000D03*
X151130000Y-85090000D03*
X157130000Y-81090000D03*
X151130000Y-81090000D03*
X108585000Y-51150000D03*
X108585000Y-57150000D03*
X104585000Y-51150000D03*
X104585000Y-57150000D03*
D13*
X169575000Y-55185000D03*
X169575000Y-57685000D03*
D14*
X142875000Y-73025000D03*
X132375000Y-73025000D03*
X141375000Y-73025000D03*
X139875000Y-73025000D03*
X138375000Y-73025000D03*
X136875000Y-73025000D03*
X135375000Y-73025000D03*
X133875000Y-73025000D03*
D15*
X105283000Y-65151000D03*
D16*
X107823000Y-65151000D03*
X105283000Y-67691000D03*
X107823000Y-67691000D03*
X105283000Y-70231000D03*
X107823000Y-70231000D03*
D17*
X106680000Y-43180000D03*
D18*
X109080000Y-43180000D03*
X108377056Y-44877056D03*
X106680000Y-45580000D03*
X104982944Y-44877056D03*
X104280000Y-43180000D03*
X104982944Y-41482944D03*
X106680000Y-40780000D03*
X108377056Y-41482944D03*
D17*
X106680000Y-83960000D03*
D18*
X109080000Y-83960000D03*
X108377056Y-85657056D03*
X106680000Y-86360000D03*
X104982944Y-85657056D03*
X104280000Y-83960000D03*
X104982944Y-82262944D03*
X106680000Y-81560000D03*
X108377056Y-82262944D03*
D17*
X198260000Y-83820000D03*
D18*
X200660000Y-83820000D03*
X199957056Y-85517056D03*
X198260000Y-86220000D03*
X196562944Y-85517056D03*
X195860000Y-83820000D03*
X196562944Y-82122944D03*
X198260000Y-81420000D03*
X199957056Y-82122944D03*
D17*
X198120000Y-43180000D03*
D18*
X200520000Y-43180000D03*
X199817056Y-44877056D03*
X198120000Y-45580000D03*
X196422944Y-44877056D03*
X195720000Y-43180000D03*
X196422944Y-41482944D03*
X198120000Y-40780000D03*
X199817056Y-41482944D03*
D19*
X136271000Y-42037000D03*
D20*
X133731000Y-42037000D03*
X131191000Y-42037000D03*
X128651000Y-42037000D03*
X126111000Y-42037000D03*
D15*
X167259000Y-42037000D03*
D16*
X164719000Y-42037000D03*
D21*
X197866000Y-70167500D03*
D22*
X197866000Y-67627500D03*
X197866000Y-65087500D03*
X197866000Y-62547500D03*
X197866000Y-60007500D03*
X197866000Y-57467500D03*
D23*
X187482480Y-53213000D03*
X184942480Y-53213000D03*
X184942480Y-51214020D03*
X187482480Y-51214020D03*
D24*
X192211960Y-48514000D03*
X180213000Y-48514000D03*
M02*
