M48
;DRILL file {KiCad 4.0.3-stable} date 09/05/16 11:51:10
;FORMAT={2:4/ absolute / inch / suppress trailing zeros}
FMAT,2
INCH,LZ
T1C0.016
T2C0.020
T3C0.025
T4C0.028
T5C0.031
T6C0.032
T7C0.039
T8C0.040
T9C0.043
T10C0.091
T11C0.126
%
G90
G05
M72
T1
X0409Y-025
X04195Y-0281
X0437Y-0199
X0437Y-0214
X0439Y-0183
X0443Y-0172
X04435Y-0234
X0446Y-0192
X0446Y-0214
X04468Y-01994
X0447Y-0157
X044738Y-0325
X04485Y-023
X045Y-0177
X0453Y-02055
X0455Y-0165
X04575Y-0254
X0459Y-0211
X0459Y-0218
X0463Y-02495
X0466Y-0257
X0467Y-0211
X0467Y-0217
X0469Y-023393
X04705Y-02615
X0474Y-0219
X0475Y-0211
X04752Y-015687
X04765Y-0255
X04765Y-02685
X0478Y-0204
X04785Y-0224
X0482Y-0246
X0483Y-0177
X0483Y-0194
X0484Y-0165
X04845Y-027036
X0485Y-02045
X0486Y-0253
X0489Y-0238
X048977Y-019945
X049Y-015687
X04905Y-02135
X0491Y-0183
X0492Y-0278
X0493Y-0212
X0494Y-019
X0494Y-0329
X04955Y-02835
X0498Y-0179
X0498Y-02135
X04985Y-029
X04995Y-03
X0502Y-03065
X0503Y-021
X05065Y-02325
X0507Y-019344
X050737Y-015637
X0508Y-02065
X051Y-0178
X051Y-02375
X05135Y-02085
X0514Y-01885
X05155Y-02285
X05155Y-0231
X05155Y-024325
X0517Y-0183
X05175Y-03305
X0518Y-0214
X051875Y-0243
X05192Y-02793
X0521Y-015637
X05227Y-02664
X053132Y-02343
X05334Y-02793
X053375Y-023231
X0535Y-021397
X053515Y-021711
X05355Y-01815
X053591Y-022981
X0538Y-02115
X054Y-0229
X05415Y-034
X0543Y-01955
X0544Y-03025
X054449Y-0238
X0545Y-0265
X0547Y-0216
X0547Y-0296
X0548Y-0201
X054984Y-027688
X0551Y-0214
X0551Y-0267
X0551Y-0283
X0552Y-0306
X055282Y-027539
X055308Y-027225
X05545Y-02945
X0556Y-023332
X056Y-0166
X05603Y-03085
X056104Y-023332
X056209Y-028281
X05625Y-0201
X0563Y-029667
X056411Y-029261
X056415Y-027783
X05643Y-02253
X05653Y-03035
X05655Y-03385
X056571Y-028162
X0567Y-02695
X056719Y-02738
X056719Y-027702
X05705Y-02695
X05735Y-023075
X05735Y-0243
X0574Y-01655
X05744Y-02046
X05775Y-02045
X057787Y-030826
X05805Y-03125
X0585Y-031
X0586Y-032
X0588Y-0313
X05895Y-01655
X059008Y-017445
X05907Y-02964
X059417Y-017763
X05948Y-017255
X05995Y-017415
X0603Y-03255
X060325Y-02515
X0607Y-0225
X06115Y-0215
X0614Y-0252
X0615Y-022584
X062595Y-033273
X0626Y-02385
X062636Y-019846
X06265Y-0195
X062725Y-0301
X06285Y-02175
X0629Y-0249
X06291Y-02232
X06305Y-033514
X063588Y-033783
X0636Y-0194
X063767Y-034042
X0638Y-0192
X064004Y-034274
X064098Y-017431
X06416Y-03091
X064249Y-034567
X0643Y-02465
X06432Y-017655
X06443Y-02172
X064542Y-017879
X064625Y-018182
X0648Y-02423
X0649Y-033811
X0649Y-034126
X06515Y-01965
X0654Y-0194
X06575Y-021706
X06575Y-0221
X0667Y-02025
X06735Y-0207
X06739Y-02319
X06745Y-02435
X0683Y-0232
X0683Y-032975
X0683Y-03355
X068636Y-0185
X068805Y-033436
X06905Y-02695
X0691Y-01785
X06915Y-01572
X06915Y-02515
X0692Y-0226
X0693Y-0341
X069324Y-0234
X0695Y-0221
X069519Y-026369
X0697Y-0293
X0698Y-0285
X069819Y-024363
X07Y-03005
X070103Y-027475
X070136Y-027988
X070154Y-029346
X0702Y-02645
X0705Y-01676
X070776Y-022
X0708Y-0339
X071052Y-030044
X071055Y-02442
X07107Y-03308
X0712Y-0278
X0712Y-03155
X07125Y-0283
X071298Y-029346
X07135Y-0289
X071404Y-029643
X071462Y-029959
X07147Y-023461
X07151Y-01561
X07176Y-02175
X07202Y-0199
X0722Y-027369
X07235Y-02965
X07245Y-023
X072482Y-028583
X072512Y-02992
X072615Y-019475
X07277Y-02417
X0729Y-034
X07318Y-016215
X07325Y-02205
X0733Y-0185
X0735Y-0314
X0735Y-03405
X07355Y-0327
X0736Y-02705
X0736Y-02781
X0736Y-0286
X073614Y-030786
X07365Y-0294
X07389Y-02346
X07396Y-02394
X07402Y-01705
X07429Y-02468
X0744Y-031354
X074411Y-027014
X0745Y-02165
X07465Y-026368
X07475Y-02325
X0751Y-02468
X0755Y-0294
X07566Y-02563
X0757Y-0312
X0758Y-03408
X0759Y-01787
X076075Y-029875
X076424Y-030462
X077Y-0279
X0786Y-03125
X0791Y-0307
X07918Y-02875
T2
X041055Y-017
X041055Y-033055
X041332Y-016332
X041332Y-017668
X041332Y-032387
X041332Y-033723
X042Y-016055
X042Y-017945
X042Y-03211
X042Y-034
X042668Y-016332
X042668Y-017668
X042668Y-032387
X042668Y-033723
X042945Y-017
X042945Y-033055
X077055Y-017
X07711Y-033
X077332Y-016332
X077332Y-017668
X077387Y-032332
X077387Y-033668
X078Y-016055
X078Y-017945
X078055Y-032055
X078055Y-033945
X078668Y-016332
X078668Y-017668
X078723Y-032332
X078723Y-033668
X078945Y-017
X079Y-033
T3
X057742Y-02565
X057742Y-02615
X057742Y-02665
X057742Y-02705
X057742Y-02745
X057742Y-02785
X057742Y-02835
X057742Y-02885
X058242Y-02565
X058242Y-02885
X058742Y-02565
X058742Y-02885
X059242Y-02565
X059242Y-02885
X059742Y-02565
X059742Y-02885
X060242Y-02565
X060242Y-02885
X060742Y-02565
X060742Y-02885
X065418Y-02515
X065418Y-02835
X065418Y-029049
X065418Y-032249
X065918Y-02515
X065918Y-02835
X065918Y-029049
X065918Y-032249
X066418Y-02515
X066418Y-02835
X066418Y-029049
X066418Y-032249
X066918Y-02515
X066918Y-02835
X066918Y-029049
X066918Y-032249
X067418Y-02515
X067418Y-02835
X067418Y-029049
X067418Y-032249
X067918Y-02515
X067918Y-02835
X067918Y-029049
X067918Y-032249
X068418Y-02515
X068418Y-02565
X068418Y-02615
X068418Y-02655
X068418Y-02695
X068418Y-02735
X068418Y-02785
X068418Y-02835
X068418Y-029049
X068418Y-029549
X068418Y-030049
X068418Y-030449
X068418Y-030849
X068418Y-031249
X068418Y-031749
X068418Y-032249
T4
X052116Y-02875
X052707Y-02875
X053297Y-02875
X053888Y-02875
X054478Y-02875
X055069Y-02875
X055659Y-02875
X05625Y-02875
T5
X066762Y-021726
X066762Y-022711
T6
X072812Y-020163
X072812Y-02095
X073812Y-020163
X073812Y-02095
T7
X041175Y-020138
X041175Y-0225
X04275Y-020138
X04275Y-0225
X046138Y-032
X046138Y-033575
X0485Y-032
X0485Y-033575
X0595Y-031925
X0595Y-0335
X061862Y-031925
X061862Y-0335
T8
X04145Y-02565
X04145Y-02665
X04145Y-02765
X04245Y-02565
X04245Y-02665
X04245Y-02765
T9
X04965Y-01655
X05065Y-01655
X05165Y-01655
X05265Y-01655
X05365Y-01655
X06485Y-01655
X06585Y-01655
X0779Y-022625
X0779Y-023625
X0779Y-024625
X0779Y-025625
X0779Y-026625
X0779Y-027625
T10
X07095Y-0191
X075674Y-0191
T11
X042Y-017
X042Y-033055
X078Y-017
X078055Y-033
T0
M30
